PathFileType	4	(X/Y/Z)	C:/Users/beibeiliu/ov580/test_trc/User3\sequence.19_training_dense_left.trc
DataRate	CameraRate	NumFrames	NumMarkers	Units	OrigDataRate	OrigDataStartFrame	OrigNumFrames
120	120	15	19	mm	120	27	80
Frame#	Time	ThumbCMC			ThumbMCP			ThumbIP			ThumbTip			IndexMCP			IndexPIP			IndexTip			MiddleMCP			MiddlePIP			MiddleTip			RingMCP			RingPIP			RingTip			PinkyMCP			PinkyPIP			PinkyTip			BackHand1			BackHand2			BackHand3	
		X0	Y0	Z0	X1	Y1	Z1	X2	Y2	Z2	X3	Y3	Z3	X4	Y4	Z4	X5	Y5	Z5	X6	Y6	Z6	X7	Y7	Z7	X8	Y8	Z8	X9	Y9	Z9	X10	Y10	Z10	X11	Y11	Z11	X12	Y12	Z12	X13	Y13	Z13	X14	Y14	Z14	X15	Y15	Z15	X16	Y16	Z16	X17	Y17	Z17	X18	Y18	Z18	
26	0.216667	-78.6486	-5.11163	30.2268	-62.2777	-19.976	3.60167	-60.3853	-30.6329	-23.6039	-70.5437	-41.8312	-42.9979	-96.8827	24.2076	-38.8465	-97.7481	12.7845	-69.5983	-89.0522	-13.8341	-79.012	-122.047	22.0732	-47.8234	-112.137	9.1069	-74.8023	-103.821	-26.3777	-80.7538	-134.808	12.5458	-42.2899	-131.011	-5.7024	-68.3116	-119.412	-36.8325	-68.4291	-152.753	-2.10355	-28.3163	-143.84	-14.181	-52.7258	-135.225	-37.4918	-60.7592	-144.179	15.268	12.375	-145.98	10.9384	45.8919	-110.502	21.1125	28.7862	
27	0.225	-82.0645	-10.1196	32.8866	-59.3205	-31.505	15.8075	-51.8759	-50.8963	-11.7052	-59.1406	-69.4056	-28.4377	-95.3153	-4.56606	-41.782	-84.9843	-24.4031	-69.9595	-80.4411	-53.0029	-69.0644	-110.75	-9.0574	-53.533	-105.302	-33.2224	-74.4759	-89.9507	-69.022	-62.1567	-130.809	-18.0803	-44.3481	-121.252	-44.2558	-63.4495	-111.74	-69.7469	-53.0037	-146.99	-27.7082	-30.3311	-136.04	-42.8439	-47.3219	-122.977	-69.5297	-44.5136	-137.835	1.80831	7.16843	-145.83	4.62054	37.1355	-111.74	12.7195	18.6105	
28	0.233333	-77.2358	-3.99459	34.5329	-57.6271	-25.5623	25.6089	-42.31	-47.6838	7.71855	-43.7561	-69.0385	-4.6282	-84.4825	-18.3522	-41.4246	-72.0095	-39.986	-59.5663	-55.0542	-69.3903	-50.9896	-98.2803	-26.3528	-46.5183	-81.2813	-54.0086	-63.8136	-68.3839	-79.2551	-44.7633	-112.941	-39.6519	-42.173	-96.1228	-63.6445	-53.5801	-82.6942	-83.2988	-35.3999	-127.769	-46.5612	-25.0218	-112.929	-67.6905	-38.9686	-95.5841	-87.2492	-28.2048	-137.404	-13.155	-0.15108	-145.263	-1.79153	31.9921	-113.809	10.1796	16.3038	
29	0.241667	-86.2548	10.5416	39.2055	-56.5723	-4.18711	28.2199	-29.7718	-17.0426	17.4121	-23.2236	-43.2475	7.57853	-81.0947	-15.5518	-34.4933	-56.6709	-30.2775	-52.2753	-28.2179	-44.0568	-41.632	-89.3514	-33.2387	-42.8456	-61.1921	-48.551	-53.7679	-33.2369	-61.5687	-28.175	-95.806	-45.362	-33.0868	-71.2572	-61.4011	-42.4923	-50.5283	-73.6201	-22.398	-105.09	-55.3298	-15.0111	-82.463	-68.3795	-28.7758	-58.7054	-75.6665	-15.8351	-129.97	-23.6318	7.52377	-142.867	-17.8541	31.2493	-121.093	6.53826	16.027	
30	0.25	-104.627	17.547	31.6305	-70.5403	27.1693	21.4401	-45.483	19.7219	13.3393	-26.4826	-0.192865	5.90265	-84.1747	-6.79266	-39.5586	-59.9347	-12.7983	-51.7066	-25.5987	-8.81787	-45.0544	-84.0643	-29.5237	-36.8012	-51.6032	-30.3814	-51.8372	-22.1649	-22.8884	-32.6746	-81.7799	-42.9734	-29.4038	-51.4141	-45.6199	-37.9871	-27.1781	-32.9802	-22.5176	-82.1709	-54.0112	-9.241	-60.3083	-54.5026	-21.688	-30.4907	-43.8859	-15.2473	-120.85	-42.3647	9.95889	-136.249	-37.7228	37.4401	-131.255	-8.27958	14.9241	
31	0.258333	-128.52	13.0702	26.7867	-104.934	38.7583	10.5068	-80.653	43.1688	-1.89447	-52.9928	39.4659	-9.77886	-96.4349	-11.052	-42.8458	-76.9387	-0.0532719	-61.0588	-52.4638	19.9628	-61.8215	-84.1678	-26.0586	-43.3194	-59.2241	-11.6832	-58.4081	-36.1403	16.0277	-48.0529	-74.0261	-37.6353	-26.0772	-53.4085	-26.4203	-42.8932	-32.5097	-0.668703	-35.5486	-67.5209	-44.3524	-4.94904	-47.457	-34.7678	-24.4521	-32.3557	-15.6281	-26.5626	-108.307	-48.6396	14.3894	-122.504	-47.3269	42.3854	-135.548	-22.3297	13.9181	
32	0.266667	-143.963	-2.88932	20.9407	-135.399	23.7065	0.355634	-117.456	40.4518	-19.4178	-91.8018	41.3806	-28.5087	-116.471	-24.9195	-45.3527	-98.2138	-10.9162	-69.7101	-83.9391	14.506	-76.6616	-93.5484	-34.8607	-44.1743	-77.9544	-17.4611	-68.7252	-68.1694	19.1354	-67.146	-81.2949	-37.464	-32.6706	-64.315	-23.588	-52.6059	-55.0156	7.31743	-53.4652	-66.3371	-37.9497	-12.1903	-58.7523	-25.5581	-34.6427	-49.5064	0.241193	-43.0758	-100.47	-53.696	14.2852	-112.29	-52.5269	44.3215	-131.84	-41.8304	18.7309	
33	0.275	-158.335	-14.6727	21.9088	-153.314	8.62982	-6.04154	-139.171	22.3059	-33.0009	-120.381	26.4592	-43.7498	-132.16	-44.6738	-44.6429	-122.718	-33.4603	-73.2264	-115.775	-6.5885	-86.0106	-114.061	-51.1519	-49.786	-104.493	-36.1838	-75.2436	-99.0428	-1.41139	-81.3556	-98.2641	-50.0668	-39.6771	-87.6919	-36.9532	-61.5317	-82.245	-4.27994	-68.1369	-80.8999	-47.4967	-23.7729	-78.6841	-35.6587	-45.0975	-71.5949	-14.2612	-58.7315	-110.779	-61.1508	13.5196	-113.486	-58.8449	41.5053	-140.321	-55.0847	21.1829	
34	0.283333	-167.255	-16.5106	26.6195	-165.739	4.05823	-4.2354	-157.008	10.292	-32.0913	-140.319	9.14979	-52.4927	-164.492	-57.8212	-37.1038	-157.096	-49.4895	-71.1329	-150.467	-30.6022	-85.6781	-146.874	-67.7672	-46.1464	-139.589	-54.2905	-75.3083	-131.241	-18.6026	-84.8928	-126.461	-67.847	-36.9019	-124.139	-55.47	-66.5284	-114.736	-25.3509	-75.4628	-107.726	-62.1035	-22.0134	-109.699	-54.599	-51.1659	-107.816	-33.5995	-66.928	-130.49	-68.7779	17.7391	-126.017	-61.1966	48.6557	-156.004	-57.8139	29.3886	
35	0.291667	-176.256	-4.91889	31.9934	-175.164	6.80995	-4.58181	-170.246	9.69827	-31.1724	-158.182	5.14964	-54.0533	-196.851	-53.3803	-28.1332	-196.895	-46.6741	-62.7921	-186.516	-30.5557	-79.0479	-178.947	-68.4255	-38.1499	-179.548	-55.7603	-68.3551	-166.012	-24.8161	-82.6692	-160.567	-70.7579	-32.6168	-160.165	-60.5725	-63.5658	-149.611	-35.4399	-74.4558	-142.558	-69.8792	-25.6865	-145.182	-61.4018	-51.1537	-138.395	-44.6527	-66.9454	-153.003	-69.7554	20.6412	-142.385	-60.9937	49.5529	-173.658	-47.3012	37.8974	
36	0.3	-174.778	10.1135	33.867	-173.191	18.3574	-2.39996	-171.669	20.6524	-29.975	-167.173	16.7512	-57.6606	-213.303	-31.8998	-20.6923	-216.861	-29.3289	-50.3395	-203.348	-14.5743	-73.0739	-207.695	-48.3758	-27.3722	-210.18	-39.4963	-58.7342	-184.9	-18.5175	-77.1818	-189.766	-57.3759	-24.8192	-192.087	-51.1392	-54.2774	-172.574	-25.5665	-71.7607	-172.635	-60.4862	-21.8326	-176.222	-53.6954	-45.2749	-165.092	-39.0605	-66.8607	-171.048	-58.5344	26.3039	-159.451	-53.0544	50.6346	-185.061	-30.7436	42.4106	
37	0.308333	-162.215	22.8459	32.1247	-161.505	29.8514	-4.04869	-161.319	31.4377	-30.3701	-163.14	26.8615	-57.2404	-221.323	4.65532	-17.7664	-223.481	9.89862	-47.0371	-206.973	19.8047	-68.9834	-221.553	-13.7892	-19.2741	-223.294	-5.69208	-52.3883	-194.335	2.66468	-72.4964	-211.017	-29.7638	-19.3355	-212.055	-19.193	-51.4132	-184.363	-12.1945	-70.2368	-194.341	-43.1993	-13.311	-199.381	-35.694	-40.2696	-190.491	-23.0317	-59.8154	-189.181	-32.7907	33.0087	-172.209	-40.2957	53.9685	-190.323	-2.48759	46.2131	
38	0.316667	-145.634	29.6692	30.6581	-139.142	37.4477	-5.68167	-143.136	39.6155	-35.3	-149.335	30.8254	-56.0846	-205.983	44.4441	-12.1709	-208.301	52.3384	-45.6127	-192.736	46.4647	-69.522	-216.817	32.1321	-16.1669	-217.402	35.1187	-50.8434	-187.186	26.8475	-74.2107	-215.339	12.038	-17.8087	-215.123	15.6335	-48.3804	-191.215	11.2367	-68.861	-207.086	-8.75548	-13.4213	-210.388	-4.35677	-38.5298	-195.102	-0.055014	-64.466	-195.624	-7.61753	32.4463	-180.96	-13.4997	54.8813	-180.513	22.9783	47.7155	
39	0.325	-128.558	29.0423	26.0291	-120.992	30.502	-6.75223	-121.48	35.0332	-41.0393	-132.382	30.0351	-65.9219	-178.867	68.2925	-22.539	-179.275	74.2738	-48.918	-165.603	63.0187	-76.9856	-197.032	59.4449	-24.6379	-193.071	62.4082	-57.4875	-174.805	44.3528	-78.6796	-200.059	41.5605	-21.3716	-200.496	41.9827	-53.4046	-181.789	25.314	-75.4768	-203.849	20.1376	-18.422	-202.965	24.4048	-43.3825	-188.067	18.6971	-66.721	-189.53	21.7732	29.9666	-180.725	4.83556	50.8157	-160.531	37.8716	43.0228	
40	0.333333	-107.856	21.7079	19.1463	-101.525	17.4321	-13.11	-98.2207	16.4346	-43.7572	-107.165	11.0453	-68.4567	-149.406	67.3717	-34.4805	-146.477	69.047	-63.8022	-142.244	52.6974	-86.9386	-167.67	64.6545	-36.0857	-165.431	64.5776	-68.0243	-149.039	38.1024	-89.9994	-180.823	49.1618	-31.75	-179.663	49.039	-62.4362	-164.51	24.3512	-82.1988	-187.308	30.9752	-22.2943	-189.211	31.9955	-49.9923	-176.168	22.6168	-72.4824	-178.243	33.9904	18.6978	-171.173	19.5716	45.8545	-144.603	41.3847	33.7627	
